<?xml version="1.0" standalone="no"?>
<!DOCTYPE svg PUBLIC "-//W3C//DTD SVG 20010904//EN"
 "http://www.w3.org/TR/2001/REC-SVG-20010904/DTD/svg10.dtd">
<svg version="1.0" xmlns="http://www.w3.org/2000/svg"
 width="1280.000000pt" height="665.000000pt" viewBox="0 0 1280.000000 665.000000"
 preserveAspectRatio="xMidYMid meet">
<g transform="translate(0.000000,665.000000) scale(0.100000,-0.100000)"
fill="#000000" stroke="none">
<path d="M1580 6625 c-80 -12 -167 -28 -194 -34 -199 -47 -467 -168 -636 -288
-139 -99 -349 -312 -439 -447 -159 -239 -245 -463 -289 -749 -23 -151 -21
-215 10 -327 113 -416 371 -834 806 -1308 86 -93 103 -117 98 -136 -7 -29
-112 -190 -180 -276 -28 -35 -126 -154 -218 -263 -351 -415 -453 -585 -514
-860 -29 -134 -29 -148 -3 -323 36 -240 91 -415 186 -594 261 -490 736 -829
1301 -930 34 -6 140 -17 235 -25 94 -8 246 -26 337 -40 129 -21 187 -25 265
-21 644 33 1180 330 1510 839 156 240 264 581 265 832 0 42 5 76 12 83 18 18
4521 17 4535 0 6 -7 13 -50 16 -95 4 -44 16 -128 27 -185 127 -626 606 -1143
1232 -1332 150 -45 265 -64 471 -81 95 -7 213 -20 262 -29 262 -44 306 -45
514 -15 441 62 771 217 1065 499 323 310 492 674 543 1171 11 107 -46 327
-124 484 -84 167 -166 280 -439 600 -210 247 -374 474 -374 516 0 10 43 64 96
121 423 452 689 879 806 1293 42 151 43 161 18 324 -27 178 -59 306 -111 436
-220 552 -733 971 -1326 1085 -59 11 -187 27 -283 35 -96 8 -247 25 -335 39
-176 28 -269 32 -378 15 -299 -44 -384 -65 -559 -135 -625 -250 -1070 -848
-1104 -1484 -4 -63 -11 -121 -17 -127 -7 -10 -473 -13 -2267 -13 -1794 0
-2260 3 -2267 13 -6 6 -13 49 -16 94 -27 361 -202 747 -464 1023 -328 345
-738 537 -1220 570 -81 6 -204 19 -273 30 -245 37 -270 40 -352 39 -46 -1
-148 -12 -228 -24z"/>
</g>
</svg>
